<svg xmlns="http://www.w3.org/2000/svg" width="14" height="14" viewBox="0 0 14 14">
    <g fill="none" fill-rule="evenodd">
        <path fill="#F3A027" d="M13.74 5.092c-.127-.343-.454-.57-.82-.572H9.37c-.124 0-.235-.078-.276-.195L7.82.713C7.692.37 7.365.144 7 .144c-.365 0-.692.227-.82.569l-.002.01-1.272 3.602c-.041.117-.151.195-.275.195H1.08c-.368 0-.697.23-.823.576-.126.347-.021.735.261.97l3.024 2.509c.093.077.129.203.09.317l-1.27 3.81c-.12.361.007.759.315.983.308.225.726.224 1.033-.001l3.118-2.287c.103-.075.242-.075.345 0l3.117 2.286c.308.226.726.227 1.034.003.308-.224.436-.623.315-.985l-1.27-3.812c-.038-.114-.003-.24.09-.316l3.03-2.512c.279-.238.38-.625.252-.97z"/>
    </g>
</svg>
